<?xml version="1.0" standalone="no"?>
<!DOCTYPE svg PUBLIC "-//W3C//DTD SVG 20010904//EN"
 "http://www.w3.org/TR/2001/REC-SVG-20010904/DTD/svg10.dtd">
<svg version="1.0" xmlns="http://www.w3.org/2000/svg"
 width="690.000000pt" height="626.000000pt" viewBox="0 0 690.000000 626.000000"
 preserveAspectRatio="xMidYMid meet">

<g transform="translate(0.000000,626.000000) scale(0.100000,-0.100000)"
fill="#000000" stroke="none">
<path d="M5222 4917 c-254 -254 -462 -469 -462 -478 0 -21 20 -39 45 -39 24 0
945 916 945 941 0 21 -20 39 -45 39 -14 0 -171 -151 -483 -463z"/>
<path d="M1032 5027 c-122 -123 -222 -226 -222 -231 0 -21 23 -46 42 -46 15 0
91 68 240 217 175 175 218 223 218 244 0 25 -15 39 -44 39 -6 0 -112 -100
-234 -223z"/>
<path d="M2985 5090 c-89 -19 -204 -78 -276 -142 -50 -44 -122 -143 -156 -214
-46 -97 -77 -248 -68 -336 12 -133 64 -296 116 -369 25 -35 24 -46 -4 -53 -39
-9 -114 -83 -141 -138 -17 -34 -26 -68 -26 -100 0 -47 0 -48 -32 -48 -54 0
-106 -19 -144 -52 -45 -40 -64 -77 -64 -128 0 -40 0 -40 -38 -40 -21 0 -62
-12 -90 -26 -66 -33 -99 -86 -108 -172 -8 -71 15 -61 -198 -86 -155 -19 -169
-27 -142 -83 23 -48 112 -174 163 -233 l40 -44 42 13 c79 23 165 123 191 218
l11 43 43 -6 c53 -8 148 18 194 52 43 34 62 73 62 134 0 50 0 50 33 50 54 0
107 20 145 54 33 31 36 39 40 99 l4 65 44 6 c117 16 204 102 204 202 0 15 6
24 15 24 18 0 18 10 1 -118 l-14 -102 -56 -61 c-96 -104 -177 -299 -211 -514
-8 -50 -19 -181 -25 -291 -13 -258 -25 -361 -60 -514 -55 -244 -126 -432 -271
-721 -79 -159 -90 -191 -66 -206 6 -4 158 -10 337 -13 l325 -5 7 -80 c25 -284
83 -656 123 -797 14 -48 25 -89 25 -92 0 -3 -573 -6 -1274 -6 -804 0 -1284 -4
-1300 -10 -32 -12 -36 -54 -7 -70 14 -7 1001 -10 3115 -10 3071 0 3096 0 3116
20 23 23 17 48 -17 61 -14 5 -539 9 -1286 9 l-1263 0 -244 170 -245 171 2 37
c3 43 50 497 59 560 l5 42 129 0 c81 0 139 5 156 12 l27 12 -7 125 c-20 368
-88 835 -171 1171 -103 416 -217 669 -387 863 -57 64 -60 70 -73 150 -16 95
-13 100 61 111 62 8 155 59 203 112 47 50 91 134 116 224 26 89 27 320 1 440
-62 296 -215 505 -438 598 -80 33 -185 47 -253 32z m585 -543 c42 -138 56
-359 31 -482 -30 -143 -116 -254 -224 -292 -67 -23 -208 -23 -296 1 -62 17
-176 69 -216 99 -20 15 -20 16 6 44 37 39 68 105 75 157 6 44 6 45 -37 71 -73
45 -109 85 -109 120 0 40 16 55 59 55 34 0 132 -47 146 -70 13 -21 99 -11 160
19 118 56 210 163 291 338 l46 98 25 -48 c13 -27 33 -76 43 -110z m-543 -66
c123 -108 133 -119 133 -140 0 -24 -34 -45 -54 -34 -8 4 -57 46 -110 92 -96
84 -112 111 -84 139 21 21 36 14 115 -57z m-22 -770 c28 -10 82 -24 121 -31
68 -11 72 -13 78 -42 7 -38 8 -78 1 -78 -3 0 -34 9 -68 21 -35 12 -95 22 -137
24 l-75 3 3 44 c4 51 11 78 20 78 4 0 30 -8 57 -19z m24 -681 c145 -106 264
-459 278 -825 11 -293 -56 -473 -197 -534 -79 -34 -77 -41 -35 169 13 63 33
153 44 199 l20 83 -48 122 c-124 311 -190 535 -198 674 -5 87 -4 94 17 117 31
33 68 32 119 -5z m213 -2171 l3 -382 138 -97 c76 -54 143 -102 150 -109 8 -8
-51 -11 -236 -11 l-246 0 -25 82 c-32 106 -59 245 -85 433 -23 167 -51 408
-51 443 0 22 0 22 175 22 l175 0 2 -381z m291 356 c-26 -230 -56 -536 -57
-589 l-1 -70 209 -145 210 -146 -97 -3 -97 -3 -190 133 -190 133 0 358 0 358
108 -3 c100 -3 107 -4 105 -23z"/>
<path d="M5337 3153 c-423 -423 -773 -776 -778 -786 -16 -29 -1 -57 29 -57 22
0 161 134 805 778 427 427 777 784 777 793 0 21 -20 39 -44 39 -14 0 -275
-254 -789 -767z"/>
</g>
</svg>
